<svg width="51" height="50" viewBox="0 0 51 50" fill="none" xmlns="http://www.w3.org/2000/svg">
<g id="Frame 384">
<rect x="1" y="0.5" width="49" height="49" rx="9.5" stroke="#D9D9D9"/>
<path id="Vector" d="M31.2433 34.16C30.0999 35.2683 28.8516 35.0933 27.6499 34.5683C26.3783 34.0317 25.2116 34.0083 23.8699 34.5683C22.1899 35.2917 21.3033 35.0817 20.2999 34.16C14.6066 28.2917 15.4466 19.355 21.9099 19.0283C23.4849 19.11 24.5816 19.8917 25.5033 19.9617C26.8799 19.6817 28.1983 18.8767 29.6683 18.9817C31.4299 19.1217 32.7599 19.8217 33.6349 21.0817C29.9949 23.2633 30.8583 28.0583 34.1949 29.4C33.5299 31.15 32.6666 32.8883 31.2316 34.1717L31.2433 34.16ZM25.3866 18.9583C25.2116 16.3567 27.3233 14.21 29.7499 14C30.0883 17.01 27.0199 19.25 25.3866 18.9583Z" fill="#262626"/>
</g>
</svg>
