<svg width="51" height="50" viewBox="0 0 51 50" fill="none" xmlns="http://www.w3.org/2000/svg">
<rect x="1" y="0.5" width="49" height="49" rx="9.5" stroke="#D9D9D9"/>
<g clip-path="url(#clip0_1770_11172)">
<path d="M34.1818 25.1684C34.1818 24.4309 34.1217 23.8928 33.9914 23.3347H25.5215V26.6632H30.4931C30.3929 27.4904 29.8517 28.7361 28.6488 29.5732L28.632 29.6846L31.31 31.7472L31.4955 31.7657C33.1995 30.201 34.1818 27.899 34.1818 25.1684Z" fill="#4285F4"/>
<path d="M25.5219 33.9381C27.9576 33.9381 30.0023 33.1408 31.4959 31.7656L28.6492 29.5731C27.8874 30.1013 26.865 30.47 25.5219 30.47C23.1363 30.47 21.1115 28.9055 20.3898 26.7429L20.284 26.7519L17.4993 28.8945L17.4629 28.9951C18.9464 31.925 21.9935 33.9381 25.5219 33.9381Z" fill="#34A853"/>
<path d="M20.3891 26.7431C20.1987 26.185 20.0884 25.587 20.0884 24.9692C20.0884 24.3513 20.1987 23.7534 20.3791 23.1953L20.374 23.0765L17.5545 20.8994L17.4622 20.943C16.8508 22.1589 16.5 23.5242 16.5 24.9692C16.5 26.4142 16.8508 27.7795 17.4622 28.9953L20.3891 26.7431Z" fill="#FBBC05"/>
<path d="M25.5219 19.468C27.2158 19.468 28.3585 20.1955 29.01 20.8035L31.556 18.332C29.9924 16.8869 27.9576 16 25.5219 16C21.9935 16 18.9464 18.013 17.4629 20.9429L20.3797 23.1952C21.1115 21.0326 23.1363 19.468 25.5219 19.468Z" fill="#EB4335"/>
</g>
<defs>
<clipPath id="clip0_1770_11172">
<rect width="17.69" height="18" fill="white" transform="translate(16.5 16)"/>
</clipPath>
</defs>
</svg>
