<svg width="24" height="24" viewBox="0 0 24 24" fill="none" xmlns="http://www.w3.org/2000/svg">
<path fill-rule="evenodd" clip-rule="evenodd" d="M10.5293 5.47007C10.6698 5.6107 10.7487 5.80132 10.7487 6.00007C10.7487 6.19882 10.6698 6.38945 10.5293 6.53007L5.80934 11.2501H19.9993C20.1983 11.2501 20.389 11.3291 20.5297 11.4697C20.6703 11.6104 20.7493 11.8012 20.7493 12.0001C20.7493 12.199 20.6703 12.3898 20.5297 12.5304C20.389 12.6711 20.1983 12.7501 19.9993 12.7501H5.80934L10.5293 17.4701C10.603 17.5387 10.6621 17.6215 10.7031 17.7135C10.7441 17.8055 10.7662 17.9048 10.7679 18.0056C10.7697 18.1063 10.7512 18.2063 10.7135 18.2997C10.6757 18.3931 10.6196 18.4779 10.5484 18.5491C10.4772 18.6203 10.3923 18.6765 10.2989 18.7142C10.2055 18.7519 10.1055 18.7704 10.0048 18.7687C9.90412 18.7669 9.8048 18.7448 9.7128 18.7039C9.6208 18.6629 9.538 18.6038 9.46934 18.5301L3.46934 12.5301C3.32889 12.3894 3.25 12.1988 3.25 12.0001C3.25 11.8013 3.32889 11.6107 3.46934 11.4701L9.46934 5.47007C9.60997 5.32962 9.80059 5.25073 9.99934 5.25073C10.1981 5.25073 10.3887 5.32962 10.5293 5.47007Z" fill="black"/>
</svg>
