<svg width="30" height="30" viewBox="0 0 30 30" fill="none" xmlns="http://www.w3.org/2000/svg">
<g id="Vector (Stroke)">
<path id="Vector (Stroke)_2" fill-rule="evenodd" clip-rule="evenodd" d="M12.4805 4.50666C10.1528 1.83111 6.40867 1.83111 4.08093 4.50666C1.71661 7.22427 1.71661 11.6593 4.08093 14.3769L15 26.9275L25.9191 14.3769C28.2834 11.6593 28.2834 7.22427 25.9191 4.50666C23.5913 1.83111 19.8472 1.83111 17.5195 4.50666L15.8397 6.43748C15.6217 6.68808 15.3179 6.83014 15 6.83014C14.6821 6.83014 14.3783 6.68808 14.1603 6.43748L12.4805 4.50666ZM2.40158 2.79197C5.64028 -0.930657 10.9212 -0.930657 14.1599 2.79197L15 3.75765L15.8401 2.79197C19.0788 -0.930657 24.3597 -0.930657 27.5984 2.79197C30.8005 6.47255 30.8005 12.411 27.5984 16.0916L15.8397 29.6073C15.6217 29.8579 15.3179 30 15 30C14.6821 30 14.3783 29.8579 14.1603 29.6073L2.40158 16.0916C-0.800527 12.411 -0.800529 6.47255 2.40158 2.79197Z" fill="#262626"/>
</g>
</svg>
