<svg width="39" height="38" viewBox="0 0 39 38" fill="none" xmlns="http://www.w3.org/2000/svg">
<rect x="0.5" width="38" height="38" rx="19" fill="#F4F1E9"/>
<path d="M15.3 9H23.7C26.9 9 29.5 11.6 29.5 14.8V23.2C29.5 24.7383 28.8889 26.2135 27.8012 27.3012C26.7135 28.3889 25.2383 29 23.7 29H15.3C12.1 29 9.5 26.4 9.5 23.2V14.8C9.5 13.2617 10.1111 11.7865 11.1988 10.6988C12.2865 9.61107 13.7617 9 15.3 9ZM15.1 11C14.1452 11 13.2295 11.3793 12.5544 12.0544C11.8793 12.7295 11.5 13.6452 11.5 14.6V23.4C11.5 25.39 13.11 27 15.1 27H23.9C24.8548 27 25.7705 26.6207 26.4456 25.9456C27.1207 25.2705 27.5 24.3548 27.5 23.4V14.6C27.5 12.61 25.89 11 23.9 11H15.1ZM24.75 12.5C25.0815 12.5 25.3995 12.6317 25.6339 12.8661C25.8683 13.1005 26 13.4185 26 13.75C26 14.0815 25.8683 14.3995 25.6339 14.6339C25.3995 14.8683 25.0815 15 24.75 15C24.4185 15 24.1005 14.8683 23.8661 14.6339C23.6317 14.3995 23.5 14.0815 23.5 13.75C23.5 13.4185 23.6317 13.1005 23.8661 12.8661C24.1005 12.6317 24.4185 12.5 24.75 12.5ZM19.5 14C20.8261 14 22.0979 14.5268 23.0355 15.4645C23.9732 16.4021 24.5 17.6739 24.5 19C24.5 20.3261 23.9732 21.5979 23.0355 22.5355C22.0979 23.4732 20.8261 24 19.5 24C18.1739 24 16.9021 23.4732 15.9645 22.5355C15.0268 21.5979 14.5 20.3261 14.5 19C14.5 17.6739 15.0268 16.4021 15.9645 15.4645C16.9021 14.5268 18.1739 14 19.5 14ZM19.5 16C18.7044 16 17.9413 16.3161 17.3787 16.8787C16.8161 17.4413 16.5 18.2044 16.5 19C16.5 19.7956 16.8161 20.5587 17.3787 21.1213C17.9413 21.6839 18.7044 22 19.5 22C20.2956 22 21.0587 21.6839 21.6213 21.1213C22.1839 20.5587 22.5 19.7956 22.5 19C22.5 18.2044 22.1839 17.4413 21.6213 16.8787C21.0587 16.3161 20.2956 16 19.5 16Z" fill="black"/>
</svg>
