<svg width="39" height="38" viewBox="0 0 39 38" fill="none" xmlns="http://www.w3.org/2000/svg">
<rect x="0.5" width="38" height="38" rx="19" fill="#F4F1E9"/>
<path d="M17.5 22L22.69 19L17.5 16V22ZM29.06 14.17C29.19 14.64 29.28 15.27 29.34 16.07C29.41 16.87 29.44 17.56 29.44 18.16L29.5 19C29.5 21.19 29.34 22.8 29.06 23.83C28.81 24.73 28.23 25.31 27.33 25.56C26.86 25.69 26 25.78 24.68 25.84C23.38 25.91 22.19 25.94 21.09 25.94L19.5 26C15.31 26 12.7 25.84 11.67 25.56C10.77 25.31 10.19 24.73 9.94 23.83C9.81 23.36 9.72 22.73 9.66 21.93C9.59 21.13 9.56 20.44 9.56 19.84L9.5 19C9.5 16.81 9.66 15.2 9.94 14.17C10.19 13.27 10.77 12.69 11.67 12.44C12.14 12.31 13 12.22 14.32 12.16C15.62 12.09 16.81 12.06 17.91 12.06L19.5 12C23.69 12 26.3 12.16 27.33 12.44C28.23 12.69 28.81 13.27 29.06 14.17Z" fill="black"/>
</svg>
